<?xml version="1.0" encoding="UTF-8"?>
<svg width="1920px" height="540px" viewBox="0 0 1920 540" version="1.1" xmlns="http://www.w3.org/2000/svg"
    xmlns:xlink="http://www.w3.org/1999/xlink">
    <style>
        .left-shape {
            animation: wait 1.7s, left-shape-animation 1 1.7s forwards;
        }

        .top-shape {
            opacity: 0;
            animation: wait 1.7s, top-shape-animation 1 1.7s forwards;
            animation-delay: 1.0s;
        }

        .right-shape {
            opacity: 0;
            animation: wait 1.7s, right-shape-animation 1 1.7s forwards;
            animation-delay: 1.5s;
        }

        @keyframes wait {

            0%,
            100% {
                opacity: 0;
            }
        }

        @keyframes left-shape-animation {
            0% {
                opacity: 0;
                transform: translateX(0) translateY(0) translateZ(0px);
            }

            100% {
                opacity: 1;
                transform: translateX(65px) translateY(150px) translateZ(0px);
            }
        }

        @keyframes top-shape-animation {
            0% {
                opacity: 0;
                transform: translateX(834px) translateY(-300px) translateZ(0px);
            }

            100% {
                opacity: 1;
                transform: translateX(834px) translateY(-150px) translateZ(0px);
            }
        }

        @keyframes right-shape-animation {
            0% {
                opacity: 0;
                transform: translateX(1900px) translateY(290px) translateZ(0px);
            }

            100% {
                opacity: 1;
                transform: translateX(1482px) translateY(241px) translateZ(0px);
            }
        }
    </style>
    <defs>
        <path d="M21.1186853,6 L35.999,35.762 L21.483871,28.6415094 L6,36.237 L21.1186853,6 Z" id="banner--path-1">
        </path>
        <filter x="-34.4%" y="-27.6%" width="168.9%" height="168.3%" filterUnits="objectBoundingBox"
            id="banner--filter-2">
            <feMorphology radius="1.5" operator="dilate" in="SourceAlpha" result="shadowSpreadOuter1"></feMorphology>
            <feOffset dx="0" dy="2" in="shadowSpreadOuter1" result="shadowOffsetOuter1"></feOffset>
            <feGaussianBlur stdDeviation="2" in="shadowOffsetOuter1" result="shadowBlurOuter1"></feGaussianBlur>
            <feComposite in="shadowBlurOuter1" in2="SourceAlpha" operator="out" result="shadowBlurOuter1"></feComposite>
            <feColorMatrix values="0 0 0 0 0   0 0 0 0 0   0 0 0 0 0  0 0 0 0.383167614 0" type="matrix"
                in="shadowBlurOuter1"></feColorMatrix>
        </filter>
        <path d="M21.1186853,6 L35.999,35.762 L21.483871,28.6415094 L6,36.237 L21.1186853,6 Z" id="banner--path-3">
        </path>
        <filter x="-34.4%" y="-27.6%" width="168.9%" height="168.3%" filterUnits="objectBoundingBox"
            id="banner--filter-4">
            <feMorphology radius="1.5" operator="dilate" in="SourceAlpha" result="shadowSpreadOuter1"></feMorphology>
            <feOffset dx="0" dy="2" in="shadowSpreadOuter1" result="shadowOffsetOuter1"></feOffset>
            <feGaussianBlur stdDeviation="2" in="shadowOffsetOuter1" result="shadowBlurOuter1"></feGaussianBlur>
            <feComposite in="shadowBlurOuter1" in2="SourceAlpha" operator="out" result="shadowBlurOuter1"></feComposite>
            <feColorMatrix values="0 0 0 0 0   0 0 0 0 0   0 0 0 0 0  0 0 0 0.383167614 0" type="matrix"
                in="shadowBlurOuter1"></feColorMatrix>
        </filter>
        <path d="M21.1186853,6 L35.999,35.762 L21.483871,28.6415094 L6,36.237 L21.1186853,6 Z" id="banner--path-5">
        </path>
        <filter x="-34.4%" y="-27.6%" width="168.9%" height="168.3%" filterUnits="objectBoundingBox"
            id="banner--filter-6">
            <feMorphology radius="1.5" operator="dilate" in="SourceAlpha" result="shadowSpreadOuter1"></feMorphology>
            <feOffset dx="0" dy="2" in="shadowSpreadOuter1" result="shadowOffsetOuter1"></feOffset>
            <feGaussianBlur stdDeviation="2" in="shadowOffsetOuter1" result="shadowBlurOuter1"></feGaussianBlur>
            <feComposite in="shadowBlurOuter1" in2="SourceAlpha" operator="out" result="shadowBlurOuter1"></feComposite>
            <feColorMatrix values="0 0 0 0 0   0 0 0 0 0   0 0 0 0 0  0 0 0 0.383167614 0" type="matrix"
                in="shadowBlurOuter1"></feColorMatrix>
        </filter>
    </defs>
    <g id="banner--banner" stroke="none" stroke-width="1" fill="none" fill-rule="evenodd">
        <rect fill="#FFFFFF" x="0" y="0" width="1920" height="540"></rect>
        <path
            d="M646.008,320 L655.224,279.392 L659.112,255.632 L659.544,255.632 L663.432,279.392 L672.648,320 L704.328,320 L731.544,224.96 L701.016,224.96 L687.912,296.24 L672.216,224.96 L646.296,224.96 L631.32,296.672 L617.928,224.96 L586.248,224.96 L613.464,320 L646.008,320 Z M818.952,320 L818.952,297.968 L769.848,297.968 L769.848,282.848 L807.576,282.848 L807.576,262.4 L769.848,262.4 L769.848,246.992 L817.08,246.992 L817.08,224.96 L740.472,224.96 L740.472,320 L818.952,320 Z M905.496,320 L905.496,297.968 L860.28,297.968 L860.28,224.96 L830.904,224.96 L830.904,320 L905.496,320 Z M958.92,321.44 C965.928,321.44 972.336,320.456 978.144,318.488 C983.952,316.52 988.896,313.328 992.976,308.912 C997.056,304.496 999.96,298.784 1001.688,291.776 L1001.688,291.776 L975.48,284.72 C974.616,289.616 972.84,293.216 970.152,295.52 C967.464,297.824 964.152,298.976 960.216,298.976 C955.8,298.976 952.224,297.992 949.488,296.024 C946.752,294.056 944.736,291.104 943.44,287.168 C942.144,283.232 941.496,278.336 941.496,272.48 C941.496,266.528 942.192,261.608 943.584,257.72 C944.976,253.832 947.04,250.904 949.776,248.936 C952.512,246.968 955.8,245.984 959.64,245.984 C963.768,245.984 967.152,246.992 969.792,249.008 C972.432,251.024 974.28,255.104 975.336,261.248 L975.336,261.248 L1000.824,251.024 C999.384,244.592 996.648,239.36 992.616,235.328 C988.584,231.296 983.664,228.32 977.856,226.4 C972.048,224.48 965.688,223.52 958.776,223.52 C949.08,223.52 940.656,225.464 933.504,229.352 C926.352,233.24 920.856,238.832 917.016,246.128 C913.176,253.424 911.256,262.208 911.256,272.48 C911.256,282.752 913.176,291.536 917.016,298.832 C920.856,306.128 926.352,311.72 933.504,315.608 C940.656,319.496 949.128,321.44 958.92,321.44 Z M1056.696,321.44 C1066.584,321.44 1075.056,319.496 1082.112,315.608 C1089.168,311.72 1094.592,306.128 1098.384,298.832 C1102.176,291.536 1104.072,282.752 1104.072,272.48 C1104.072,262.208 1102.176,253.424 1098.384,246.128 C1094.592,238.832 1089.168,233.24 1082.112,229.352 C1075.056,225.464 1066.584,223.52 1056.696,223.52 C1046.904,223.52 1038.432,225.464 1031.28,229.352 C1024.128,233.24 1018.632,238.832 1014.792,246.128 C1010.952,253.424 1009.032,262.208 1009.032,272.48 C1009.032,282.752 1010.952,291.536 1014.792,298.832 C1018.632,306.128 1024.128,311.72 1031.28,315.608 C1038.432,319.496 1046.904,321.44 1056.696,321.44 Z M1056.696,298.976 C1052.76,298.976 1049.52,297.992 1046.976,296.024 C1044.432,294.056 1042.512,291.128 1041.216,287.24 C1039.92,283.352 1039.272,278.432 1039.272,272.48 C1039.272,266.432 1039.92,261.488 1041.216,257.648 C1042.512,253.808 1044.432,250.904 1046.976,248.936 C1049.52,246.968 1052.76,245.984 1056.696,245.984 C1060.536,245.984 1063.752,246.968 1066.344,248.936 C1068.936,250.904 1070.856,253.808 1072.104,257.648 C1073.352,261.488 1073.976,266.432 1073.976,272.48 C1073.976,278.432 1073.352,283.352 1072.104,287.24 C1070.856,291.128 1068.936,294.056 1066.344,296.024 C1063.752,297.992 1060.536,298.976 1056.696,298.976 Z M1144.104,320 L1144.104,281.984 L1143.528,251.312 L1143.96,251.312 L1164.552,320 L1188.168,320 L1209.048,251.312 L1209.336,251.312 L1208.76,281.984 L1208.76,320 L1234.68,320 L1234.68,224.96 L1195.08,224.96 L1182.264,270.032 L1177.512,288.896 L1177.224,288.896 L1172.472,270.032 L1159.656,224.96 L1118.184,224.96 L1118.184,320 L1144.104,320 Z M1330.584,320 L1330.584,297.968 L1281.48,297.968 L1281.48,282.848 L1319.208,282.848 L1319.208,262.4 L1281.48,262.4 L1281.48,246.992 L1328.712,246.992 L1328.712,224.96 L1252.104,224.96 L1252.104,320 L1330.584,320 Z"
            id="banner--welcome-text" fill="#212121" fill-rule="nonzero"></path>
        <g id="banner--right-shape" class="right-shape" transform="translate(1482.000000, 241.000000)">
            <circle id="banner--Oval" fill="#FFC700" cx="139" cy="139" r="139"></circle>
            <g id="banner--Group-2" transform="translate(236.000000, 195.000000)">
                <g id="banner--Combined-Shape"
                    transform="translate(21.000000, 21.118685) rotate(-35.000000) translate(-21.000000, -21.118685) ">
                    <use fill="black" fill-opacity="1" filter="url(#banner--filter-2)" xlink:href="#banner--path-1">
                    </use>
                    <use stroke="#FFFFFF" stroke-width="3" fill="#F24E1D" fill-rule="evenodd"
                        xlink:href="#banner--path-1">
                    </use>
                </g>
                <g id="banner--Group" transform="translate(54.000000, 37.000000)">
                    <rect id="banner--Rectangle" fill="#F24E1D" x="0" y="0" width="70" height="30"></rect>
                    <text id="banner--React" font-family="WorkSans-Bold, Work Sans" font-size="18" font-weight="bold"
                        fill="#FFFFFF">
                        <tspan x="9.94" y="21">React</tspan>
                    </text>
                </g>
            </g>
        </g>
        <g id="banner--left-shape" class="left-shape" transform="translate(24.000000, 151.000000)">
            <polygon id="banner--Star" fill="#FFC700"
                transform="translate(195.000000, 195.000000) rotate(35.000000) translate(-195.000000, -195.000000) "
                points="195 265 112.710065 308.262379 128.426044 216.63119 61.8520877 151.737621 153.855032 138.36881 195 55 236.144968 138.36881 328.147912 151.737621 261.573956 216.63119 277.289935 308.262379">
            </polygon>
            <g id="banner--Group-2" transform="translate(265.000000, 251.000000)">
                <g id="banner--Combined-Shape"
                    transform="translate(21.000000, 21.118685) rotate(-35.000000) translate(-21.000000, -21.118685) ">
                    <use fill="black" fill-opacity="1" filter="url(#banner--filter-4)" xlink:href="#banner--path-3">
                    </use>
                    <use stroke="#FFFFFF" stroke-width="3" fill="#10A958" fill-rule="evenodd"
                        xlink:href="#banner--path-3">
                    </use>
                </g>
                <g id="banner--Group" transform="translate(54.000000, 37.000000)">
                    <rect id="banner--Rectangle" fill="#10A958" x="0" y="0" width="116" height="30"></rect>
                    <text id="banner--TypeSCript" font-family="WorkSans-Bold, Work Sans" font-size="18"
                        font-weight="bold" fill="#FFFFFF">
                        <tspan x="8.27" y="21">TypeSCript</tspan>
                    </text>
                </g>
            </g>
        </g>
        <g id="banner--top-shape" class="top-shape" transform="translate(834.249655, -135.000000)">
            <rect id="banner--Rectangle" fill="#FFC700"
                transform="translate(143.500000, 143.500000) rotate(30.000000) translate(-143.500000, -143.500000) "
                x="39" y="39" width="209" height="209" rx="30"></rect>
            <g id="banner--Group-2" transform="translate(201.000000, 202.000000)">
                <g id="banner--Combined-Shape"
                    transform="translate(21.000000, 21.118685) rotate(-35.000000) translate(-21.000000, -21.118685) ">
                    <use fill="black" fill-opacity="1" filter="url(#banner--filter-6)" xlink:href="#banner--path-5">
                    </use>
                    <use stroke="#FFFFFF" stroke-width="3" fill="#5551FF" fill-rule="evenodd"
                        xlink:href="#banner--path-5">
                    </use>
                </g>
                <g id="banner--Group" transform="translate(54.000000, 37.000000)">
                    <rect id="banner--Rectangle" fill="#5551FF" x="0" y="0" width="70" height="30"></rect>
                    <text id="banner--Sass" font-family="WorkSans-Bold, Work Sans" font-size="18" font-weight="bold"
                        fill="#FFFFFF">
                        <tspan x="14.926" y="21">Sass</tspan>
                    </text>
                </g>
            </g>
        </g>
    </g>
</svg>